<?xml version="1.0" encoding="utf-8"?>
<!-- Generator: Adobe Illustrator 25.0.1, SVG Export Plug-In . SVG Version: 6.00 Build 0)  -->
<svg version="1.1" id="Layer_1" xmlns="http://www.w3.org/2000/svg" xmlns:xlink="http://www.w3.org/1999/xlink" x="0px" y="0px"
	 viewBox="0 0 48 31" style="enable-background:new 0 0 48 31;" xml:space="preserve">
<style type="text/css">
	.st0{fill:#242326;}
	.st1{fill:#FFFFFF;}
	.st2{fill:#DB0000;}
	.st3{fill:#98B833;}
	.st4{fill:#589CDD;}
	.st5{fill:#0278CF;}
	.st6{fill:#5D4D76;}
</style>
<g>
	<rect class="st4" width="48" height="31"/>
	<g>
		<path class="st1" d="M13.8,21.3h-2.2l-3-7.1H8.4c0.1,0.5,0.2,1.1,0.2,1.8v5.4H6.9v-9.9h2.3l3,7.1h0.1c-0.1-0.5-0.1-1-0.1-1.7v-5.4
			h1.7V21.3z"/>
		<path class="st1" d="M22.3,16.3c0,1.6-0.3,2.9-0.9,3.8c-0.6,0.9-1.5,1.3-2.6,1.3c-1.1,0-2-0.4-2.6-1.3c-0.6-0.9-0.9-2.1-0.9-3.8
			c0-1.6,0.3-2.9,0.9-3.8c0.6-0.9,1.5-1.3,2.6-1.3c1.1,0,2,0.4,2.6,1.3S22.3,14.7,22.3,16.3z M17.1,16.3c0,1.1,0.1,2,0.4,2.6
			c0.3,0.6,0.7,0.9,1.2,0.9c1.1,0,1.7-1.1,1.7-3.5s-0.5-3.5-1.6-3.5c-0.6,0-1,0.3-1.3,0.9C17.3,14.3,17.1,15.2,17.1,16.3z"/>
		<path class="st1" d="M27.8,11.4h1.8l-2.3,9.9H25l-2.3-9.9h1.8l1.3,6c0.1,0.5,0.2,1.2,0.3,2.2c0.1-0.8,0.2-1.5,0.4-2.2L27.8,11.4z"
			/>
		<path class="st1" d="M37.1,16.3c0,1.6-0.3,2.9-0.9,3.8c-0.6,0.9-1.5,1.3-2.6,1.3c-1.1,0-2-0.4-2.6-1.3C30.3,19.2,30,18,30,16.3
			c0-1.6,0.3-2.9,0.9-3.8c0.6-0.9,1.5-1.3,2.6-1.3c1.1,0,2,0.4,2.6,1.3S37.1,14.7,37.1,16.3z M31.9,16.3c0,1.1,0.1,2,0.4,2.6
			c0.3,0.6,0.7,0.9,1.2,0.9c1.1,0,1.7-1.1,1.7-3.5s-0.5-3.5-1.6-3.5c-0.6,0-1,0.3-1.3,0.9C32,14.3,31.9,15.2,31.9,16.3z"/>
		<path class="st1" d="M38.4,20.3c0-0.4,0.1-0.6,0.3-0.8c0.2-0.2,0.5-0.3,0.8-0.3s0.6,0.1,0.8,0.3s0.3,0.5,0.3,0.8
			c0,0.4-0.1,0.6-0.3,0.8c-0.2,0.2-0.5,0.3-0.8,0.3c-0.4,0-0.6-0.1-0.8-0.3C38.5,21,38.4,20.7,38.4,20.3z M40.3,18.1h-1.5l-0.3-6.7
			h2.2L40.3,18.1z"/>
	</g>
</g>
</svg>
